<svg id="Режим_изоляции" data-name="Режим изоляции" xmlns="http://www.w3.org/2000/svg" viewBox="0 0 9.52 22.5"><defs><style>.cls-1{fill:#3d3d3d;}</style></defs><title>arrow-left</title><path class="cls-1" d="M31.55,127.48a1.24,1.24,0,0,1-1-2l7-10a1.25,1.25,0,1,1,2,1.43l-7,10A1.24,1.24,0,0,1,31.55,127.48Z" transform="translate(-30.31 -114.98)"/><path class="cls-1" d="M38.58,137.48a1.23,1.23,0,0,1-1-.53l-7-10a1.25,1.25,0,0,1,2.05-1.43l7,10a1.25,1.25,0,0,1-.3,1.74A1.27,1.27,0,0,1,38.58,137.48Z" transform="translate(-30.31 -114.98)"/></svg>