<svg id="Режим_изоляции" data-name="Режим изоляции" xmlns="http://www.w3.org/2000/svg" viewBox="0 0 12.52 32"><defs><style>.cls-1{fill:#3d3d3d;}</style></defs><title>arrow-right</title><path class="cls-1" d="M40.34,125.24a1,1,0,0,1,.57.18,1,1,0,0,1,.24,1.4l-10.52,15a1,1,0,0,1-1.39.25,1,1,0,0,1-.25-1.4l10.53-15A1,1,0,0,1,40.34,125.24Z" transform="translate(-28.81 -110.23)"/><path class="cls-1" d="M29.82,110.23a1,1,0,0,1,.82.42l10.48,15a1,1,0,0,1-1.64,1.14L29,111.8a1,1,0,0,1,.25-1.39A.92.92,0,0,1,29.82,110.23Z" transform="translate(-28.81 -110.23)"/></svg>