<svg id="Режим_изоляции" data-name="Режим изоляции" xmlns="http://www.w3.org/2000/svg" viewBox="0 0 5.51 12"><defs><style>.cls-1{fill:#3d3d3d;}</style></defs><title>arrow-pagi-left</title><path class="cls-1" d="M33.31,127.23a.92.92,0,0,1-.57-.18,1,1,0,0,1-.25-1.39l3.5-5a1,1,0,0,1,1.4-.25,1,1,0,0,1,.24,1.4l-3.5,5A1,1,0,0,1,33.31,127.23Z" transform="translate(-32.31 -120.23)"/><path class="cls-1" d="M36.82,132.23a1,1,0,0,1-.82-.42l-3.5-5a1,1,0,0,1,.25-1.4,1,1,0,0,1,1.39.25l3.5,5a1,1,0,0,1-.24,1.39A1,1,0,0,1,36.82,132.23Z" transform="translate(-32.31 -120.23)"/></svg>