<svg id="Режим_изоляции" data-name="Режим изоляции" xmlns="http://www.w3.org/2000/svg" viewBox="0 0 5.57 12"><defs><style>.cls-1{fill:#3d3d3d;}</style></defs><title>arrow-pagi-right</title><path class="cls-1" d="M36.81,125.21a1,1,0,0,1,.58.18,1,1,0,0,1,.26,1.39l-3.45,5a1,1,0,0,1-1.65-1.13l3.45-5A1,1,0,0,1,36.81,125.21Z" transform="translate(-32.26 -120.25)"/><path class="cls-1" d="M33.24,120.25a1,1,0,0,1,.83.42l3.56,5a1,1,0,0,1-.23,1.4,1,1,0,0,1-1.4-.23l-3.56-5a1,1,0,0,1,.23-1.4A1.14,1.14,0,0,1,33.24,120.25Z" transform="translate(-32.26 -120.25)"/></svg>