<svg id="Слой_1" data-name="Слой 1" xmlns="http://www.w3.org/2000/svg" viewBox="0 0 17.5 8.6"><defs><style>.cls-1{fill:#3d3d3d;}</style></defs><title>arrow-small</title><path class="cls-1" d="M16.75,5.05H.75a.75.75,0,0,1,0-1.5h16a.75.75,0,0,1,0,1.5Z" transform="translate(0 0)"/><path class="cls-1" d="M11.51,8.6a.75.75,0,0,1-.62-.33.74.74,0,0,1,.2-1l5.24-3.55a.74.74,0,0,1,1,.2.75.75,0,0,1-.2,1L11.93,8.47A.74.74,0,0,1,11.51,8.6Z" transform="translate(0 0)"/><path class="cls-1" d="M16.75,5.05a.72.72,0,0,1-.42-.13L11.09,1.37a.74.74,0,0,1-.2-1,.75.75,0,0,1,1-.2l5.24,3.55a.75.75,0,0,1-.42,1.37Z" transform="translate(0 0)"/></svg>