<svg id="Режим_изоляции" data-name="Режим изоляции" xmlns="http://www.w3.org/2000/svg" viewBox="0 0 9.56 22.5"><defs><style>.cls-1{fill:#3d3d3d;}</style></defs><title>arrow-right</title><path class="cls-1" d="M38.58,125a1.25,1.25,0,0,1,1,2l-7,10a1.24,1.24,0,0,1-1.74.31,1.26,1.26,0,0,1-.31-1.74l7-10A1.25,1.25,0,0,1,38.58,125Z" transform="translate(-30.27 -115)"/><path class="cls-1" d="M31.51,115a1.25,1.25,0,0,1,1,.53l7,10a1.25,1.25,0,0,1-2,1.44l-7-10a1.24,1.24,0,0,1,.3-1.74A1.16,1.16,0,0,1,31.51,115Z" transform="translate(-30.27 -115)"/></svg>