<svg id="Режим_изоляции" data-name="Режим изоляции" xmlns="http://www.w3.org/2000/svg" viewBox="0 0 12.54 32"><defs><style>.cls-1{fill:#3d3d3d;}</style></defs><title>arrow-lest</title><path class="cls-1" d="M29.8,127.23a.92.92,0,0,1-.57-.18,1,1,0,0,1-.25-1.39l10.5-15a1,1,0,0,1,1.4-.25,1,1,0,0,1,.24,1.4l-10.5,15A1,1,0,0,1,29.8,127.23Z" transform="translate(-28.8 -110.23)"/><path class="cls-1" d="M40.34,142.23a1,1,0,0,1-.82-.42L29,126.81a1,1,0,0,1,.25-1.4,1,1,0,0,1,1.39.25l10.51,15a1,1,0,0,1-.25,1.39A1,1,0,0,1,40.34,142.23Z" transform="translate(-28.8 -110.23)"/></svg>