<svg id="Слой_1" data-name="Слой 1" xmlns="http://www.w3.org/2000/svg" viewBox="0 0 18.59 18.5"><title>calendar</title><path d="M18.63,20.25H5.37a2.66,2.66,0,0,1-2.66-2.66V6.33A2.67,2.67,0,0,1,5.37,3.66H6.58V2.5a.75.75,0,0,1,1.5,0V3.66h7.84V2.5a.75.75,0,1,1,1.5,0V3.66h1.21a2.67,2.67,0,0,1,2.66,2.67V17.59A2.66,2.66,0,0,1,18.63,20.25ZM5.37,5.16A1.16,1.16,0,0,0,4.21,6.33V17.59a1.16,1.16,0,0,0,1.16,1.16H18.63a1.16,1.16,0,0,0,1.16-1.16V6.33a1.16,1.16,0,0,0-1.16-1.17Z" transform="translate(-2.71 -1.75)"/><path d="M20.54,8.92H3.46a.75.75,0,1,1,0-1.5H20.54a.75.75,0,0,1,0,1.5Z" transform="translate(-2.71 -1.75)"/><rect x="3.79" y="9.59" width="2" height="2" rx="1"/><rect x="6.79" y="9.59" width="2" height="2" rx="1"/><rect x="9.79" y="9.59" width="2" height="2" rx="1"/><rect x="3.79" y="12.59" width="2" height="2" rx="1"/><rect x="6.79" y="12.59" width="2" height="2" rx="1"/><rect x="9.79" y="12.59" width="2" height="2" rx="1"/><rect x="12.79" y="9.59" width="2" height="2" rx="1"/><rect x="12.79" y="12.59" width="2" height="2" rx="1"/></svg>