<svg id="Слой_1" data-name="Слой 1" xmlns="http://www.w3.org/2000/svg" xmlns:xlink="http://www.w3.org/1999/xlink" viewBox="0 0 14 15.3"><defs><style>.cls-1{fill:none;}.cls-2{clip-path:url(#clip-path);}.cls-3{fill:#575757;}</style><clipPath id="clip-path" transform="translate(-0.01 -0.02)"><rect class="cls-1" x="0.01" y="0.02" width="14" height="15.3"/></clipPath></defs><title>clear</title><g class="cls-2"><path class="cls-3" d="M7,15.31A7,7,0,0,1,1,4.79a.68.68,0,0,1,.59-.34.67.67,0,0,1,.34.09.7.7,0,0,1,.26.94A5.61,5.61,0,1,0,7,2.67a5.28,5.28,0,0,0-1.31.16L6.46,3a.69.69,0,0,1,.43.87.67.67,0,0,1-.65.46L6,4.28l-2.39-.8a1.44,1.44,0,0,1-.31-.22l-.07-.09,0-.1a1.73,1.73,0,0,1,0-.32.59.59,0,0,1,.06-.2L4.41.37A.68.68,0,0,1,5,0,.71.71,0,0,1,5.6.34a.71.71,0,0,1,0,.69l-.31.58A4.2,4.2,0,0,1,7,1.3a7,7,0,0,1,4.24,12.58A6.93,6.93,0,0,1,7,15.31" transform="translate(-0.01 -0.02)"/></g></svg>