<svg id="Слой_1" data-name="Слой 1" xmlns="http://www.w3.org/2000/svg" viewBox="0 0 17.5 19.5"><defs><style>.cls-1{fill:#3d3d3d;}</style></defs><title>compare</title><path class="cls-1" d="M70,138.36H54a.75.75,0,0,1,0-1.5H70a.75.75,0,0,1,0,1.5Z" transform="translate(-53.25 -133.31)"/><path class="cls-1" d="M64.76,141.91a.73.73,0,0,1-.62-.33.74.74,0,0,1,.2-1L69.58,137a.75.75,0,1,1,.84,1.24l-5.24,3.55A.74.74,0,0,1,64.76,141.91Z" transform="translate(-53.25 -133.31)"/><path class="cls-1" d="M70,138.36a.72.72,0,0,1-.42-.13l-5.24-3.55a.74.74,0,0,1-.2-1,.75.75,0,0,1,1-.2L70.42,137a.75.75,0,0,1,.2,1A.73.73,0,0,1,70,138.36Z" transform="translate(-53.25 -133.31)"/><path class="cls-1" d="M70,149.26H54a.75.75,0,0,1,0-1.5H70a.75.75,0,0,1,0,1.5Z" transform="translate(-53.25 -133.31)"/><path class="cls-1" d="M59.24,152.81a.74.74,0,0,1-.42-.13l-5.24-3.55a.75.75,0,0,1,.84-1.24l5.24,3.55a.74.74,0,0,1,.2,1A.73.73,0,0,1,59.24,152.81Z" transform="translate(-53.25 -133.31)"/><path class="cls-1" d="M54,149.26a.73.73,0,0,1-.62-.33.75.75,0,0,1,.2-1l5.24-3.55a.75.75,0,0,1,1,.2.73.73,0,0,1-.2,1l-5.24,3.55A.72.72,0,0,1,54,149.26Z" transform="translate(-53.25 -133.31)"/></svg>