<svg id="Слой_1" data-name="Слой 1" xmlns="http://www.w3.org/2000/svg" viewBox="0 0 18.96 13.5"><title>eyes</title><path d="M249,256.75c-5.22,0-9.48-3-9.48-6.75s4.26-6.75,9.48-6.75,9.48,3,9.48,6.75S254.24,256.75,249,256.75Zm0-12c-4.4,0-8,2.36-8,5.25s3.58,5.25,8,5.25,8-2.35,8-5.25S253.41,244.75,249,244.75Z" transform="translate(-239.53 -243.25)"/><path d="M249,253.75a3.75,3.75,0,1,1,3.75-3.75A3.75,3.75,0,0,1,249,253.75Zm0-6a2.25,2.25,0,1,0,2.25,2.25A2.25,2.25,0,0,0,249,247.75Z" transform="translate(-239.53 -243.25)"/></svg>