<svg 
 xmlns="http://www.w3.org/2000/svg"
 xmlns:xlink="http://www.w3.org/1999/xlink"
 width="18px" height="18px">
<path fill-rule="evenodd"  fill="rgb(87, 87, 87)"
 d="M16.000,18.000 L12.000,18.000 L12.000,16.000 L16.000,16.000 L16.000,12.000 L18.000,12.000 L18.000,18.000 L16.000,18.000 ZM16.000,2.000 L12.000,2.000 L12.000,-0.000 L16.000,-0.000 L18.000,-0.000 L18.000,6.000 L16.000,6.000 L16.000,2.000 ZM-0.000,18.000 L-0.000,12.000 L2.000,12.000 L2.000,16.000 L6.000,16.000 L6.000,18.000 L2.000,18.000 L-0.000,18.000 ZM2.000,6.000 L-0.000,6.000 L-0.000,-0.000 L2.000,-0.000 L6.000,-0.000 L6.000,2.000 L2.000,2.000 L2.000,6.000 Z"/>
</svg>