<svg id="Layer_1" data-name="Layer 1" xmlns="http://www.w3.org/2000/svg" viewBox="0 0 30 30"><defs><style>.cls-1{fill:#3d3d3d;}</style></defs><title>globe</title><path class="cls-1" d="M256,271a15,15,0,1,1,15-15A15,15,0,0,1,256,271Zm0-28.45a13.46,13.46,0,0,0-13.41,12.62l0,.32.28.16a4.56,4.56,0,0,1,1.63,1.9,4.22,4.22,0,0,0,.62.95,2.21,2.21,0,0,0,1.37.47c.85.09,1.25.25,1.25.91a2.54,2.54,0,0,1-.6,1.47,2.87,2.87,0,0,0-.69,1.76v2.33l.16.15A13.44,13.44,0,0,0,269.45,256a13.48,13.48,0,0,0-.5-3.57l-.21-.79-.63.54c-.79.7-1.23.82-1.42.83h0a.6.6,0,0,1-.44-.15,4.13,4.13,0,0,0-1-.72l-1.2-.62.48,1.26a9,9,0,0,0,2.52,3.12l0,.19s-1.91,2.12-1.91,3.14a1.27,1.27,0,0,1-.57,1,1.73,1.73,0,0,0-.72,1.55c0,1.83-3.2,2.68-3.33,2.71h0c-.06,0-.09,0-.11,0a5.16,5.16,0,0,1-1.33-2.67,1.47,1.47,0,0,1,.37-1.1,1.17,1.17,0,0,0,.28-.84,2.81,2.81,0,0,0-.3-1.18,3.27,3.27,0,0,1-.35-1.41v-.16L259,257c-.44-.64-2.87-.87-4.3-.87-.83,0-2.07-.38-2.07-1.42,0-.17,0-.36,0-.56a3.19,3.19,0,0,1,.72-2.77,5.75,5.75,0,0,1,4-1.33,3,3,0,0,1,1.55.32,3.34,3.34,0,0,0,1.69.33H262a3.05,3.05,0,0,0,2.06-.43,1,1,0,0,0,.27-.75c0-1.33-2.72-1.81-5-1.81a5.49,5.49,0,0,0-2.48.69,4.58,4.58,0,0,1-2,.61,1,1,0,0,1-.39-1,4.23,4.23,0,0,1,2.27-2.49,2.21,2.21,0,0,0,1-.8L258,244h-.59l-.18-.18a.12.12,0,0,1,0-.09l.06-.1.12-.07,1.25-.82-1.5-.12C256.73,242.58,256.37,242.55,256,242.55Z" transform="translate(-241 -241)"/></svg>