<?xml version="1.0" encoding="utf-8"?>
<!-- Generator: Adobe Illustrator 22.0.1, SVG Export Plug-In . SVG Version: 6.00 Build 0)  -->
<svg version="1.1" id="Слой_1" xmlns="http://www.w3.org/2000/svg" xmlns:xlink="http://www.w3.org/1999/xlink" x="0px" y="0px"
	 viewBox="0 0 24.6 17.8" style="enable-background:new 0 0 24.6 17.8;" xml:space="preserve">
<style type="text/css">
	.st0{clip-path:url(#SVGID_2_);fill:#2C922C;}
</style>
<g>
	<defs>
		<rect id="SVGID_1_" width="24.6" height="17.8"/>
	</defs>
	<clipPath id="SVGID_2_">
		<use xlink:href="#SVGID_1_"  style="overflow:visible;"/>
	</clipPath>
	<path class="st0" d="M24.2,9.5L23.4,9c0,0,0,0,0,0c0,0,0,0,0,0l-3.5-2V6.2l0.1,0.1c0.1,0.1,0.2,0.1,0.4,0.1c0.3,0,0.5-0.1,0.7-0.4
		c0.2-0.4,0.1-0.8-0.3-1l-1.2-0.7c0,0,0,0,0,0l-7-4.1C12.4,0.1,12.3,0,12.2,0s-0.3,0-0.4,0.1l-7,4.1c0,0,0,0,0,0L3.6,4.9
		C3.2,5.1,3.1,5.6,3.3,6c0.1,0.2,0.4,0.4,0.6,0.4c0.1,0,0.3,0,0.4-0.1l0.1-0.1v1L1.2,9c0,0,0,0,0,0c0,0,0,0,0,0L0.4,9.5
		c-0.4,0.2-0.5,0.7-0.3,1c0.1,0.2,0.4,0.4,0.6,0.4v6.2c0,0.4,0.3,0.8,0.7,0.8h3.6h0.8h12.8h0.5h3.9c0.4,0,0.8-0.3,0.8-0.8v-6.2
		c0.3,0,0.5-0.1,0.6-0.4C24.7,10.1,24.5,9.7,24.2,9.5z M2.3,16.3v-5.5v-0.8l2.1-1.2l0,7.4H2.3z M18.4,6.2v10.2H5.9V6.2V5.3l6.3-3.6
		l6.3,3.6V6.2z M22.3,10.9v5.5h-2.1l0-7.4l2.1,1.2V10.9z"/>
	<path class="st0" d="M9.4,10.6c-0.4-0.4-1-0.4-1.3,0l0,0c-0.4,0.4-0.4,1,0,1.3l2,2c0.4,0.4,1,0.4,1.3,0L16.3,9c0.4-0.4,0.4-1,0-1.3
		c-0.4-0.4-1-0.4-1.3,0l-4.2,4.2L9.4,10.6z"/>
</g>
</svg>
