<svg id="Capa_1" data-name="Capa 1" xmlns="http://www.w3.org/2000/svg" viewBox="0 0 19.67 20"><title>key</title><path d="M122.49,295.16a2.47,2.47,0,0,1-1.76-.73l-3.32-3.31a2.51,2.51,0,0,1,0-3.52l4.31-4.31a2,2,0,0,1,2.75-.09l7.52-7.53a.65.65,0,0,1,.32-.16l1.67-.34h.1a.65.65,0,0,1,.44.18l1.65,1.66a.59.59,0,0,1,.17.55l-.33,1.66a.53.53,0,0,1-.17.31l-1,1a.64.64,0,0,1-.43.18h-.48l.06.18a.6.6,0,0,1-.14.63l-1.66,1.66a.64.64,0,0,1-.43.18h-.48l.06.18a.59.59,0,0,1-.15.63l-1,1a.75.75,0,0,1-.24.15l-.57.19v.22a.64.64,0,0,1-.18.43l-.9.89.23.23a2,2,0,0,1,0,2.86l-4.31,4.3A2.44,2.44,0,0,1,122.49,295.16Zm.66-11.23a.79.79,0,0,0-.56.23l-4.31,4.31a1.26,1.26,0,0,0,0,1.78l3.31,3.32a1.27,1.27,0,0,0,1.79,0l4.3-4.31a.79.79,0,0,0,0-1.12l-4-4A.79.79,0,0,0,123.15,283.93Zm4.31,2.24.71-.71v-.41a.62.62,0,0,1,.42-.58l.89-.29.59-.62-.21-.63a.57.57,0,0,1,.08-.55.63.63,0,0,1,.5-.26h1.07l1.21-1.21-.21-.63a.6.6,0,0,1,.08-.55.61.61,0,0,1,.5-.26h1.07l.71-.71.2-1.12-1.19-1.2-1.19.24-7.35,7.38Z" transform="translate(-116.69 -275.16)"/><path d="M122.53,292.59a.63.63,0,0,1-.47-.2l-2.63-2.62a.68.68,0,0,1,0-.95.68.68,0,0,1,.47-.19.67.67,0,0,1,.47.19l2.63,2.63a.67.67,0,0,1-.47,1.14Z" transform="translate(-116.69 -275.16)"/></svg>