<svg id="Режим_изоляции" data-name="Режим изоляции" xmlns="http://www.w3.org/2000/svg" viewBox="0 0 12.6 32"><defs><style>.cls-1{fill:#3d3d3d;}</style></defs><title>main-arrow-right</title><path class="cls-1" d="M40.34,125.27a1,1,0,0,1,.58.18,1,1,0,0,1,.23,1.4l-10.6,14.93a1,1,0,0,1-1.4.23,1,1,0,0,1-.23-1.39l10.6-14.93A1,1,0,0,1,40.34,125.27Z" transform="translate(-28.73 -110.2)"/><path class="cls-1" d="M29.91,110.2a1,1,0,0,1,.81.43L41.13,125.7a1,1,0,0,1-.26,1.39,1,1,0,0,1-1.39-.25l-10.4-15.07a1,1,0,0,1,.25-1.39A1,1,0,0,1,29.91,110.2Z" transform="translate(-28.73 -110.2)"/></svg>