<?xml version="1.0" encoding="utf-8"?>
<!-- Generator: Adobe Illustrator 22.0.1, SVG Export Plug-In . SVG Version: 6.00 Build 0)  -->
<svg version="1.1" id="Слой_1" xmlns="http://www.w3.org/2000/svg" xmlns:xlink="http://www.w3.org/1999/xlink" x="0px" y="0px"
	 viewBox="0 0 16 12.7" style="enable-background:new 0 0 16 12.7;" xml:space="preserve">
<path d="M14,0H2C0.9,0,0,0.9,0,2v8.7c0,1.1,0.9,2,2,2h12c1.1,0,2-0.9,2-2V2C16,0.9,15.1,0,14,0z M8,5.5l-5.3-4h10.6L8,5.5z M14,11.2
	H2c-0.3,0-0.5-0.2-0.5-0.5V2.4L7.4,7c0.2,0.1,0.3,0.2,0.5,0.2c0,0,0,0,0.1,0c0,0,0,0,0,0c0.1,0,0.3,0,0.4-0.1l0,0C8.5,7,8.5,7,8.6,7
	c0,0,0-0.1,0-0.1l5.9-4.4v8.2C14.5,11,14.3,11.2,14,11.2z"/>
</svg>
