<?xml version="1.0" encoding="utf-8"?>
<!-- Generator: Adobe Illustrator 22.0.1, SVG Export Plug-In . SVG Version: 6.00 Build 0)  -->
<svg version="1.1" id="Слой_1" xmlns="http://www.w3.org/2000/svg" xmlns:xlink="http://www.w3.org/1999/xlink" x="0px" y="0px"
	 viewBox="0 0 16 12.7" style="enable-background:new 0 0 16 12.7;" xml:space="preserve">
<path d="M14,1.5c0.3,0,0.5,0.2,0.5,0.5v8.7c0,0.3-0.2,0.5-0.5,0.5H2c-0.3,0-0.5-0.2-0.5-0.5V2c0-0.3,0.2-0.5,0.5-0.5H14 M14,0H2
	C0.9,0,0,0.9,0,2v8.7c0,1.1,0.9,2,2,2h12c1.1,0,2-0.9,2-2V2C16,0.9,15.1,0,14,0L14,0z"/>
<path d="M7.9,7.2c-0.2,0-0.3-0.1-0.5-0.2L0.8,1.9C0.5,1.7,0.4,1.2,0.7,0.9c0.3-0.3,0.7-0.4,1.1-0.1l6.7,5.1c0.3,0.3,0.4,0.7,0.1,1.1
	C8.4,7.1,8.2,7.2,7.9,7.2z"/>
<path d="M8,7.2c-0.2,0-0.4-0.1-0.6-0.3C7.1,6.6,7.2,6.1,7.5,5.9l6.7-5.1c0.3-0.3,0.8-0.2,1.1,0.1c0.3,0.3,0.2,0.8-0.1,1.1L8.4,7.1
	C8.3,7.2,8.1,7.2,8,7.2z"/>
</svg>
