<svg id="Слой_1" data-name="Слой 1" xmlns="http://www.w3.org/2000/svg" viewBox="0 0 20 15.83"><title>ms</title><path d="M18,1.53a.5.5,0,0,1,.5.5V13.86a.5.5,0,0,1-.5.5H2a.5.5,0,0,1-.5-.5V2a.5.5,0,0,1,.5-.5H18M18,0H2A2,2,0,0,0,0,2V13.86a2,2,0,0,0,2,2H18a2,2,0,0,0,2-2V2a2,2,0,0,0-2-2Z" transform="translate(0 -0.03)"/><path d="M9.94,8.81a.79.79,0,0,1-.46-.15L1.15,2.27a.75.75,0,0,1,.91-1.19l8.33,6.39a.74.74,0,0,1,.14,1A.75.75,0,0,1,9.94,8.81Z" transform="translate(0 -0.03)"/><path d="M9.94,8.81a.76.76,0,0,1-.6-.29.75.75,0,0,1,.14-1l8.33-6.39a.76.76,0,0,1,1.06.14.75.75,0,0,1-.14,1.05L10.39,8.66A.74.74,0,0,1,9.94,8.81Z" transform="translate(0 -0.03)"/></svg>