<svg 
 xmlns="http://www.w3.org/2000/svg"
 xmlns:xlink="http://www.w3.org/1999/xlink"
 width="11px" height="12px">
<path fill-rule="evenodd"  fill="rgb(61, 61, 61)"
 d="M10.043,12.000 C9.515,12.000 9.087,11.572 9.087,11.043 L9.087,1.111 C9.087,0.582 9.515,0.154 10.043,0.154 C10.572,0.154 11.000,0.582 11.000,1.111 L11.000,11.043 C11.000,11.572 10.572,12.000 10.043,12.000 ZM5.241,6.417 L1.799,11.306 C1.608,11.578 1.303,11.723 0.992,11.723 C0.798,11.723 0.601,11.665 0.430,11.546 C-0.016,11.237 -0.123,10.627 0.188,10.185 L3.240,5.849 L0.198,1.530 C-0.113,1.087 -0.005,0.478 0.440,0.168 C0.883,-0.142 1.498,-0.035 1.810,0.408 L5.252,5.296 C5.496,5.644 5.474,6.089 5.241,6.416 C5.241,6.417 5.241,6.417 5.241,6.417 Z"/>
</svg>