<svg 
 xmlns="http://www.w3.org/2000/svg"
 xmlns:xlink="http://www.w3.org/1999/xlink"
 width="12px" height="13px">
<path fill-rule="evenodd"  fill="rgb(44, 146, 44)"
 d="M8.113,6.769 L11.304,11.161 C11.629,11.609 11.516,12.227 11.051,12.540 C10.872,12.661 10.666,12.719 10.462,12.719 C10.138,12.719 9.819,12.572 9.619,12.297 L6.021,7.345 C6.021,7.344 6.021,7.344 6.021,7.344 C5.777,7.012 5.754,6.561 6.010,6.209 L9.608,1.257 C9.933,0.809 10.577,0.700 11.040,1.014 C11.505,1.328 11.618,1.945 11.293,2.393 L8.113,6.769 ZM1.000,13.000 C0.448,13.000 -0.000,12.552 -0.000,12.000 L-0.000,2.000 C-0.000,1.447 0.448,1.000 1.000,1.000 C1.552,1.000 2.000,1.447 2.000,2.000 L2.000,12.000 C2.000,12.552 1.552,13.000 1.000,13.000 Z"/>
</svg>