<svg id="Слой_1" data-name="Слой 1" xmlns="http://www.w3.org/2000/svg" viewBox="0 0 17.5 17.5"><title>phone</title><path d="M28.74,30.75h0A15.47,15.47,0,0,1,13.25,15.26a2,2,0,0,1,2-2h2.94a2,2,0,0,1,2,2,8.66,8.66,0,0,0,.41,2.63,2,2,0,0,1-.5,2.07l-.93.93a.5.5,0,0,0-.08.6,11.86,11.86,0,0,0,3.33,3.33.5.5,0,0,0,.6-.08l.93-.94a2,2,0,0,1,2.06-.5,8.43,8.43,0,0,0,2.64.42h.12l0,0a2,2,0,0,1,1.89,2v2.94A2,2,0,0,1,28.74,30.75Zm-13.46-16a.52.52,0,0,0-.53.51,14,14,0,0,0,14,14h0a.52.52,0,0,0,.51-.53V25.78a.53.53,0,0,0-.16-.38.5.5,0,0,0-.36-.16h-.11a9.72,9.72,0,0,1-3-.49.52.52,0,0,0-.54.14l-.93.93a2,2,0,0,1-2.48.27,13.08,13.08,0,0,1-3.76-3.76,2,2,0,0,1,.27-2.48l.93-.93a.54.54,0,0,0,.14-.55,9.76,9.76,0,0,1-.49-3.1.5.5,0,0,0-.16-.36.49.49,0,0,0-.38-.16Z" transform="translate(-13.25 -13.25)"/></svg>