<?xml version="1.0" encoding="utf-8"?>
<!-- Generator: Adobe Illustrator 23.0.1, SVG Export Plug-In . SVG Version: 6.00 Build 0)  -->
<svg version="1.1" id="Слой_1" xmlns="http://www.w3.org/2000/svg" xmlns:xlink="http://www.w3.org/1999/xlink" x="0px" y="0px"
	 viewBox="0 0 24 24" style="enable-background:new 0 0 24 24;" xml:space="preserve">
<path d="M12,4.4c2.1,0,3.81,1.71,3.81,3.81c0,2-2,5.24-3.81,7.52c-1.81-2.38-3.81-5.52-3.81-7.52C8.19,6.12,9.9,4.4,12,4.4 M12,2.5
	c-3.14,0-5.71,2.57-5.71,5.71C6.29,12.5,12,18.69,12,18.69s5.71-6.29,5.71-10.48C17.71,5.07,15.14,2.5,12,2.5 M12,6.31
	c-1.05,0-1.9,0.86-1.9,1.9s0.86,1.9,1.9,1.9s1.9-0.86,1.9-1.9S13.05,6.31,12,6.31 M19.62,18.69c0,2.1-3.43,3.81-7.62,3.81
	s-7.62-1.71-7.62-3.81c0-1.24,1.14-2.29,2.95-3.05L7.9,16.5c-0.95,0.48-1.62,1.05-1.62,1.71c0,1.33,2.57,2.38,5.71,2.38
	s5.71-1.05,5.71-2.38c0-0.67-0.67-1.24-1.71-1.71l0.57-0.86C18.48,16.4,19.62,17.45,19.62,18.69z"/>
</svg>
