<?xml version="1.0" encoding="utf-8"?>
<!-- Generator: Adobe Illustrator 22.0.1, SVG Export Plug-In . SVG Version: 6.00 Build 0)  -->
<svg version="1.1" id="Слой_1" xmlns="http://www.w3.org/2000/svg" xmlns:xlink="http://www.w3.org/1999/xlink" x="0px" y="0px"
	 viewBox="0 0 37 52.3" style="enable-background:new 0 0 37 52.3;" xml:space="preserve">
<style type="text/css">
	.st0{fill:#2C922C;}
</style>
<path class="st0" d="M18.5,0.1c10.1,0,18.4,8.3,18.4,18.4c0,13.5-18.4,33.6-18.4,33.6S0.1,32.2,0.1,18.5C0.1,8.4,8.4,0.1,18.5,0.1
	 M18.5,2.9c-8.6,0-15.6,7-15.6,15.6s7,15.6,15.6,15.6s15.6-7,15.6-15.6S27.1,2.9,18.5,2.9 M18.5,12c-3.6,0-6.5,2.9-6.5,6.5
	s2.9,6.5,6.5,6.5s6.5-2.9,6.5-6.5S22.1,12,18.5,12"/>
</svg>
