<svg 
 xmlns="http://www.w3.org/2000/svg"
 xmlns:xlink="http://www.w3.org/1999/xlink"
 width="40px" height="40px">
<path fill-rule="evenodd"
 d="M39.000,22.000 L22.000,22.000 L22.000,39.000 C22.000,39.552 21.552,40.000 21.000,40.000 L19.000,40.000 C18.448,40.000 18.000,39.552 18.000,39.000 L18.000,22.000 L1.000,22.000 C0.448,22.000 -0.000,21.552 -0.000,21.000 L-0.000,19.000 C-0.000,18.448 0.448,18.000 1.000,18.000 L18.000,18.000 L18.000,1.000 C18.000,0.448 18.448,-0.000 19.000,-0.000 L21.000,-0.000 C21.552,-0.000 22.000,0.448 22.000,1.000 L22.000,18.000 L39.000,18.000 C39.552,18.000 40.000,18.448 40.000,19.000 L40.000,21.000 C40.000,21.552 39.552,22.000 39.000,22.000 Z"/>
</svg>