<svg width="25" height="25" viewBox="0 0 25 25" fill="none" xmlns="http://www.w3.org/2000/svg">
<path fill-rule="evenodd" clip-rule="evenodd" d="M15.909 16.0264C16.1978 15.7294 16.6726 15.7229 16.9695 16.0117L24.523 23.3596C24.8199 23.6484 24.8264 24.1232 24.5376 24.4202C24.2488 24.7171 23.7739 24.7236 23.477 24.4348L15.9236 17.0869C15.6267 16.7981 15.6201 16.3233 15.909 16.0264Z" fill="#333333"/>
<path fill-rule="evenodd" clip-rule="evenodd" d="M9.81818 18.1364C14.4122 18.1364 18.1364 14.4122 18.1364 9.81818C18.1364 5.22418 14.4122 1.5 9.81818 1.5C5.22418 1.5 1.5 5.22418 1.5 9.81818C1.5 14.4122 5.22418 18.1364 9.81818 18.1364ZM9.81818 19.6364C15.2406 19.6364 19.6364 15.2406 19.6364 9.81818C19.6364 4.39575 15.2406 0 9.81818 0C4.39575 0 0 4.39575 0 9.81818C0 15.2406 4.39575 19.6364 9.81818 19.6364Z" fill="#333333"/>
</svg>
