<svg id="Слой_1" data-name="Слой 1" xmlns="http://www.w3.org/2000/svg" viewBox="0 0 16 12.67"><title>massage</title><path d="M14,1.53a.5.5,0,0,1,.5.5V10.7a.5.5,0,0,1-.5.5H2a.5.5,0,0,1-.5-.5V2a.5.5,0,0,1,.5-.5H14M14,0H2A2,2,0,0,0,0,2V10.7a2,2,0,0,0,2,2H14a2,2,0,0,0,2-2V2a2,2,0,0,0-2-2Z" transform="translate(0 -0.03)"/><path d="M8,7.21a.79.79,0,0,1-.46-.15L.83,1.94A.75.75,0,0,1,1.74.75L8.41,5.87a.75.75,0,0,1,.14,1A.77.77,0,0,1,8,7.21Z" transform="translate(0 -0.03)"/><path d="M8,7.21a.77.77,0,0,1-.6-.29.76.76,0,0,1,.14-1L14.16.75a.75.75,0,1,1,.91,1.19L8.41,7.06A.79.79,0,0,1,8,7.21Z" transform="translate(0 -0.03)"/></svg>